<?xml version="1.0" encoding="utf-8"?>
<!-- Generator: Adobe Illustrator 18.1.0, SVG Export Plug-In . SVG Version: 6.00 Build 0)  -->
<svg version="1.1" id="Calque_1" xmlns="http://www.w3.org/2000/svg" xmlns:xlink="http://www.w3.org/1999/xlink" x="0px" y="0px"
	 viewBox="0 0 1200 3000" enable-background="new 0 0 1200 3000" xml:space="preserve">
<path fill="#FFFFFF" d="M1114.3,900H85.4C38.3,900,0,938.8,0,986.5v1027c0,47.7,38.3,86.5,85.4,86.5h1028.8
	c47.1,0,85.7-38.8,85.7-86.5v-1027C1200,938.8,1161.4,900,1114.3,900L1114.3,900z M362.7,1928.6H184.8v-572.7h178.1v572.7H362.7z
	 M273.8,1277.7c-57.1,0-103.1-46.3-103.1-103.1c0-56.8,46.1-103.1,103.1-103.1c56.8,0,103.1,46.3,103.1,103.1
	C376.9,1231.6,330.8,1277.7,273.8,1277.7z M1029.4,1928.6H851.5V1650c0-66.4-1.3-151.9-92.4-151.9c-92.7,0-106.9,72.3-106.9,147.1
	v283.4H474.4v-572.7H645v78.2h2.4c23.8-45,82-92.4,168.5-92.4c180,0,213.5,118.7,213.5,272.9V1928.6z"/>
</svg>
