<?xml version="1.0" encoding="utf-8"?>
<!-- Generator: Adobe Illustrator 18.1.0, SVG Export Plug-In . SVG Version: 6.00 Build 0)  -->
<svg version="1.1" id="Calque_1" xmlns="http://www.w3.org/2000/svg" xmlns:xlink="http://www.w3.org/1999/xlink" x="0px" y="0px"
	 viewBox="0 0 1200 3000" enable-background="new 0 0 1200 3000" xml:space="preserve">
<path fill="#FFFFFF" d="M1071.4,900H128.6C57.6,900,0,957.6,0,1028.6v942.9c0,71,57.6,128.6,128.6,128.6h942.9
	c71,0,128.6-57.6,128.6-128.6v-942.9C1200,957.6,1142.4,900,1071.4,900z M940.4,1325.4c0.5,7.5,0.5,15.3,0.5,22.8
	c0,232.2-176.8,499.8-499.8,499.8c-99.6,0-192.1-28.9-269.7-78.8c14.2,1.6,27.9,2.1,42.3,2.1c82.2,0,157.8-27.9,218-75
	c-77.1-1.6-142-52.2-164.2-121.9c27.1,4,51.4,4,79.3-3.2c-80.4-16.3-140.6-87.1-140.6-172.5v-2.1c23.3,13.1,50.6,21.2,79.3,22.2
	c-48.9-32.6-78.3-87.5-78.2-146.3c0-32.7,8.6-62.7,23.8-88.7c86.5,106.6,216.4,176.3,362.1,183.8
	c-24.9-119.2,64.3-215.9,171.4-215.9c50.6,0,96.2,21.2,128.3,55.4c39.6-7.5,77.7-22.2,111.4-42.3c-13.1,40.7-40.7,75-77.1,96.7
	c35.4-3.8,69.6-13.7,101.2-27.3C1004.7,1269.4,974.7,1300.4,940.4,1325.4z"/>
</svg>
